<svg xmlns="http://www.w3.org/2000/svg" viewBox="0 0 136.06 136.06">
  <defs>
    <style>
      .cls-1 {
        fill: #222;
      }

      .cls-2 {
        fill: none;
      }
    </style>
  </defs>
  <g id="Layer_2" data-name="Layer 2">
    <g id="Layer_1-2" data-name="Layer 1">
      <path class="cls-1"
        d="M45.56,76.2a10.54,10.54,0,0,1,4.53,9.15,10.69,10.69,0,0,1-1.27,5.11,13.79,13.79,0,0,1-3.51,4.21,16.9,16.9,0,0,1-5.19,2.85,19.45,19.45,0,0,1-6.36,1,18.92,18.92,0,0,1-5-.66,19.54,19.54,0,0,1-4.5-1.82,15.23,15.23,0,0,1-3.59-2.76,10.57,10.57,0,0,1-2.26-3.59l4.2-2q2.31-1.11,4-2A7.37,7.37,0,0,0,29,88a7.71,7.71,0,0,0,4.29,1,5.62,5.62,0,0,0,4.12-1.32,3.68,3.68,0,0,0,1.32-2.47,2,2,0,0,0-.9-1.53,7.35,7.35,0,0,0-2.07-1.11,8.35,8.35,0,0,0-2.72-.7,10.22,10.22,0,0,1-2.47-.46,18.61,18.61,0,0,1-6.81-2.84A13.2,13.2,0,0,1,20.32,75a8,8,0,0,1-1.19-3.46c-.09-1.1-.13-2-.13-2.64a11.41,11.41,0,0,1,1.16-5,12.91,12.91,0,0,1,3.17-4.17A16.2,16.2,0,0,1,28,56.82a15.21,15.21,0,0,1,5.73-1.08,16,16,0,0,1,9.08,2.81,14,14,0,0,1,3.25,3.13,12.9,12.9,0,0,1,2,4l-8.83,3a4.33,4.33,0,0,0-2-2.39A6.32,6.32,0,0,0,34,65.39a3.64,3.64,0,0,0-2.8,1.16,3.4,3.4,0,0,0-1.07,2.31,2.57,2.57,0,0,0,1,2.18,6.09,6.09,0,0,0,2.27,1.11c.6.12,1.19.21,1.77.29s1.14.18,1.69.29a35.45,35.45,0,0,1,5,1.49A16.16,16.16,0,0,1,45.56,76.2Z" />
      <path class="cls-1"
        d="M79.78,55.58a19,19,0,0,1,8,1.69,20.12,20.12,0,0,1,6.44,4.62,21.2,21.2,0,0,1,4.24,6.84,23.66,23.66,0,0,1,0,16.74,21.13,21.13,0,0,1-4.24,6.85,20.12,20.12,0,0,1-6.44,4.62,19.16,19.16,0,0,1-8,1.69,19.4,19.4,0,0,1-7-1.28,14.07,14.07,0,0,1-5.23-3.26l-1.65,3.55H56.2V37.43H67.58V60Q72.27,55.58,79.78,55.58Zm-1.56,32.9a9.75,9.75,0,0,0,4.16-.9,11.68,11.68,0,0,0,3.42-2.44,10.82,10.82,0,0,0,2.31-3.58,12.26,12.26,0,0,0,0-8.87,10.83,10.83,0,0,0-2.31-3.63,11.83,11.83,0,0,0-3.42-2.43,9.61,9.61,0,0,0-4.16-.91,13.69,13.69,0,0,0-4.17.62,8.66,8.66,0,0,0-3.38,2,9.33,9.33,0,0,0-2.27,3.55,15.34,15.34,0,0,0-.82,5.4,13.66,13.66,0,0,0,.82,5,9.22,9.22,0,0,0,5.65,5.52A12.09,12.09,0,0,0,78.22,88.48Z" />
      <path class="cls-1"
        d="M111.33,85.68a6.31,6.31,0,1,1,0,12.62,6,6,0,0,1-4.43-1.83,6.48,6.48,0,0,1,0-9A6,6,0,0,1,111.33,85.68Z" />
      <rect class="cls-2" width="136.06" height="136.06" />
    </g>
  </g>
</svg>