<svg xmlns="http://www.w3.org/2000/svg" viewBox="0 0 272.87 93.22">
  <defs>
    <style>
      .cls-1 {
        fill: #222;
      }
    </style>
  </defs>
  <g id="Layer_2" data-name="Layer 2">
    <g id="Layer_1-2" data-name="Layer 1">
      <path class="cls-1"
        d="M15.79,22.56a6.14,6.14,0,0,1,2.64,5.33,6.26,6.26,0,0,1-.74,3,8.07,8.07,0,0,1-2,2.45,9.75,9.75,0,0,1-3,1.66,11.15,11.15,0,0,1-3.69.6A11,11,0,0,1,6,35.18a11.14,11.14,0,0,1-2.61-1,8.87,8.87,0,0,1-2.09-1.61A6.16,6.16,0,0,1,0,30.43l2.45-1.17c.89-.44,1.68-.83,2.35-1.18A4.33,4.33,0,0,0,6.14,29.4a4.51,4.51,0,0,0,2.5.6,3.28,3.28,0,0,0,2.4-.77,2.15,2.15,0,0,0,.77-1.44,1.16,1.16,0,0,0-.53-.89,4.3,4.3,0,0,0-1.2-.64,4.77,4.77,0,0,0-1.58-.41,6.18,6.18,0,0,1-1.44-.27,10.66,10.66,0,0,1-4-1.65,7.59,7.59,0,0,1-2-2.09,4.77,4.77,0,0,1-.69-2c0-.64-.07-1.15-.07-1.53A6.62,6.62,0,0,1,1,15.36a7.41,7.41,0,0,1,1.85-2.42,9.37,9.37,0,0,1,2.73-1.66,8.82,8.82,0,0,1,3.34-.62,9.15,9.15,0,0,1,2.83.43,9.31,9.31,0,0,1,2.45,1.2,8.18,8.18,0,0,1,1.89,1.82,7.53,7.53,0,0,1,1.18,2.35l-5.14,1.73A2.54,2.54,0,0,0,11,16.8a3.68,3.68,0,0,0-1.9-.53,2.15,2.15,0,0,0-1.63.67,2,2,0,0,0-.62,1.35,1.5,1.5,0,0,0,.6,1.27,3.88,3.88,0,0,0,1.32.65l1,.17c.33,0,.66.1,1,.16a21.37,21.37,0,0,1,2.91.87A9.35,9.35,0,0,1,15.79,22.56Z" />
      <path class="cls-1"
        d="M25.82,8a3.52,3.52,0,0,1-2.59-1.06,3.53,3.53,0,0,1-1.05-2.59A3.63,3.63,0,0,1,23.23,1.7a3.66,3.66,0,0,1,5.19,0,3.63,3.63,0,0,1,1,2.62,3.53,3.53,0,0,1-1,2.59A3.52,3.52,0,0,1,25.82,8ZM29.14,35H22.51V11.23h6.63Z" />
      <path class="cls-1"
        d="M58.08,0V35H52.42l-1-2.06a8.33,8.33,0,0,1-3.05,1.89,11.37,11.37,0,0,1-12.48-2.93,12.5,12.5,0,0,1-2.45-4,13.77,13.77,0,0,1,0-9.74,12.66,12.66,0,0,1,2.45-4,11.53,11.53,0,0,1,3.72-2.69,11.3,11.3,0,0,1,4.7-1,14,14,0,0,1,4,.53,7.82,7.82,0,0,1,3.1,1.77V0ZM51.46,23.18A9.22,9.22,0,0,0,51,20,5.14,5.14,0,0,0,49.63,18a5.25,5.25,0,0,0-2-1.16,7.91,7.91,0,0,0-2.42-.36,5.68,5.68,0,0,0-2.43.53,6.49,6.49,0,0,0-2,1.42,6.4,6.4,0,0,0-1.32,2.11A7,7,0,0,0,39,23.09a6.9,6.9,0,0,0,.48,2.59,6.52,6.52,0,0,0,1.32,2.09,6.46,6.46,0,0,0,2,1.41,5.53,5.53,0,0,0,2.43.53,6.33,6.33,0,0,0,4.39-1.61A6.42,6.42,0,0,0,51.46,23.18Z" />
      <path class="cls-1"
        d="M86.4,0V35H80.74l-1-2.06a8.33,8.33,0,0,1-3,1.89,11.37,11.37,0,0,1-12.48-2.93,12.5,12.5,0,0,1-2.45-4,13.77,13.77,0,0,1,0-9.74,12.66,12.66,0,0,1,2.45-4A11.53,11.53,0,0,1,68,11.54a11.27,11.27,0,0,1,4.7-1,14,14,0,0,1,4,.53,7.82,7.82,0,0,1,3.1,1.77V0ZM79.78,23.18A9.22,9.22,0,0,0,79.3,20,5.14,5.14,0,0,0,78,18a5.25,5.25,0,0,0-2-1.16,7.91,7.91,0,0,0-2.42-.36,5.68,5.68,0,0,0-2.43.53,6.49,6.49,0,0,0-2,1.42,6.4,6.4,0,0,0-1.32,2.11,7,7,0,0,0-.48,2.57,6.9,6.9,0,0,0,.48,2.59,6.52,6.52,0,0,0,1.32,2.09,6.46,6.46,0,0,0,2,1.41,5.53,5.53,0,0,0,2.43.53,6.33,6.33,0,0,0,4.39-1.61A6.42,6.42,0,0,0,79.78,23.18Z" />
      <path class="cls-1"
        d="M104,10.56a10.07,10.07,0,0,1,4.39,1,11.09,11.09,0,0,1,3.53,2.69,12.53,12.53,0,0,1,2.32,4,14,14,0,0,1,.85,4.87V35h-6.48V30.67c0-1.21,0-2.47,0-3.77s0-2.4,0-3.33a8.2,8.2,0,0,0-.43-2.64A7.3,7.3,0,0,0,107,18.65a6.18,6.18,0,0,0-1.8-1.59,4.36,4.36,0,0,0-2.2-.6,5.67,5.67,0,0,0-2.12.41,5.09,5.09,0,0,0-1.78,1.2,5.6,5.6,0,0,0-1.23,2,7.87,7.87,0,0,0-.46,2.84V35H90.77V0h6.62l0,13.06a8.81,8.81,0,0,1,2.85-1.85A9.86,9.86,0,0,1,104,10.56Z" />
      <path class="cls-1"
        d="M142.94,11.23V35h-5.71l-.67-2.54A6.68,6.68,0,0,1,133.22,35a13,13,0,0,1-4.05.63,11,11,0,0,1-4.68-1,11.45,11.45,0,0,1-3.72-2.69,12.39,12.39,0,0,1-2.48-4,13.92,13.92,0,0,1,0-9.74,12.55,12.55,0,0,1,2.48-4,11.75,11.75,0,0,1,3.72-2.69,11.11,11.11,0,0,1,4.68-1,11.94,11.94,0,0,1,4.22.72,7.18,7.18,0,0,1,3.17,2.3l.67-2.35Zm-6.62,12a8.5,8.5,0,0,0-.51-3.14A5.46,5.46,0,0,0,134.47,18a5.1,5.1,0,0,0-2-1.16,7.91,7.91,0,0,0-2.42-.36,5.63,5.63,0,0,0-2.42.53,6.74,6.74,0,0,0-2,1.42,6.29,6.29,0,0,0-1.34,2.11,7,7,0,0,0-.48,2.57,6.9,6.9,0,0,0,.48,2.59,6.4,6.4,0,0,0,1.34,2.09,6.71,6.71,0,0,0,2,1.41,5.49,5.49,0,0,0,2.42.53,6.31,6.31,0,0,0,4.39-1.61A6.39,6.39,0,0,0,136.32,23.18Z" />
      <path class="cls-1"
        d="M153.74,14.54a10.23,10.23,0,0,1,1.11-1.46,7.3,7.3,0,0,1,1.48-1.25,8.26,8.26,0,0,1,2-.89,8.75,8.75,0,0,1,2.5-.33,15.09,15.09,0,0,1,3.79.57L164,17.09c-.36-.07-.71-.15-1.06-.24s-.61-.12-1-.17a6.78,6.78,0,0,0-1-.07,9.12,9.12,0,0,0-2.86.43,7.27,7.27,0,0,0-2.28,1.2,5.81,5.81,0,0,0-1.53,1.85,4.79,4.79,0,0,0-.58,2.33V35h-6.62V11.23h6Z" />
      <path class="cls-1"
        d="M178.25,29.13a3.92,3.92,0,0,0,2.71.92,7.4,7.4,0,0,0,2.69-.53v5.53a23.17,23.17,0,0,1-2.55.64,14.42,14.42,0,0,1-2.69.26,11.13,11.13,0,0,1-2.92-.38,6.55,6.55,0,0,1-2.5-1.32,6.43,6.43,0,0,1-1.75-2.5,10.14,10.14,0,0,1-.65-3.86V17.14h-3.41V12.67l3.41-1.44V5.9h6.62v5.33h6.44v5.91h-6.44v9.39A3.28,3.28,0,0,0,178.25,29.13Z" />
      <path class="cls-1"
        d="M200.06,10.56a10,10,0,0,1,4.39,1A11.09,11.09,0,0,1,208,14.23a12.74,12.74,0,0,1,2.33,4,14,14,0,0,1,.84,4.87V35h-6.48V30.67c0-1.21,0-2.47,0-3.77s0-2.4,0-3.33a8.21,8.21,0,0,0-.44-2.64,7.5,7.5,0,0,0-1.2-2.28,6.35,6.35,0,0,0-1.81-1.59,4.3,4.3,0,0,0-2.19-.6,5.63,5.63,0,0,0-2.12.41,5.13,5.13,0,0,0-1.79,1.2,5.9,5.9,0,0,0-1.23,2,8.1,8.1,0,0,0-.45,2.84V35h-6.63V0h6.63l0,13.06a8.85,8.85,0,0,1,2.86-1.85A9.77,9.77,0,0,1,200.06,10.56Z" />
      <path class="cls-1"
        d="M14.45,68.16a11.17,11.17,0,0,1,4.65,1,11.88,11.88,0,0,1,3.75,2.69,12.53,12.53,0,0,1,2.47,4,13.77,13.77,0,0,1,0,9.74,12.37,12.37,0,0,1-2.47,4,11.57,11.57,0,0,1-3.75,2.69,11,11,0,0,1-4.65,1,11.2,11.2,0,0,1-4.06-.75,8.33,8.33,0,0,1-3.05-1.89l-1,2.06H.72v-35H7.34V70.75A9.93,9.93,0,0,1,14.45,68.16Zm-.91,19.15A5.52,5.52,0,0,0,16,86.78a6.67,6.67,0,0,0,2-1.41,6.27,6.27,0,0,0,1.35-2.09,6.9,6.9,0,0,0,.48-2.59,7,7,0,0,0-.48-2.57A6.16,6.16,0,0,0,18,76a6.7,6.7,0,0,0-2-1.42,5.67,5.67,0,0,0-2.42-.53,7.93,7.93,0,0,0-2.43.36,5.1,5.1,0,0,0-2,1.16,5.31,5.31,0,0,0-1.32,2.06,9,9,0,0,0-.48,3.14,8,8,0,0,0,.48,2.91,5.42,5.42,0,0,0,1.32,2,5.59,5.59,0,0,0,2,1.2A6.89,6.89,0,0,0,13.54,87.31Z" />
      <path class="cls-1"
        d="M40.75,68.16a12,12,0,0,1,4.8,1,12.59,12.59,0,0,1,3.94,2.69,12.85,12.85,0,0,1,2.66,4,12.47,12.47,0,0,1,0,9.74,12.69,12.69,0,0,1-2.66,4,12.26,12.26,0,0,1-3.94,2.69,11.79,11.79,0,0,1-4.8,1,12,12,0,0,1-4.85-1A12.33,12.33,0,0,1,32,89.54a12.89,12.89,0,0,1-2.67-4,12.59,12.59,0,0,1,0-9.74,13.05,13.05,0,0,1,2.67-4,12.66,12.66,0,0,1,3.93-2.69A12.11,12.11,0,0,1,40.75,68.16Zm0,19.25A5.22,5.22,0,0,0,43,86.93a5.94,5.94,0,0,0,1.83-1.32,6.33,6.33,0,0,0,1.25-2A7.22,7.22,0,0,0,46.51,81a7.87,7.87,0,0,0-.45-2.69,7.58,7.58,0,0,0-1.25-2.19A6.15,6.15,0,0,0,43,74.62a4.64,4.64,0,0,0-2.23-.56,4.75,4.75,0,0,0-2.25.56,5.88,5.88,0,0,0-1.85,1.48,7.15,7.15,0,0,0-1.25,2.19A7.64,7.64,0,0,0,34.94,81a7,7,0,0,0,.46,2.61,6,6,0,0,0,1.25,2,5.69,5.69,0,0,0,1.85,1.32A5.35,5.35,0,0,0,40.75,87.41Z" />
      <path class="cls-1"
        d="M63.12,72.14a10.94,10.94,0,0,1,1.1-1.46,7.65,7.65,0,0,1,1.49-1.25,8.08,8.08,0,0,1,2-.89,8.73,8.73,0,0,1,2.49-.33,15.16,15.16,0,0,1,3.8.57l-.63,5.91q-.53-.1-1-.24c-.29-.07-.61-.12-1-.17a6.88,6.88,0,0,0-1-.07,9.07,9.07,0,0,0-2.86.43,7.27,7.27,0,0,0-2.28,1.2,5.81,5.81,0,0,0-1.53,1.85A4.79,4.79,0,0,0,63.12,80V92.64H56.5V68.83h6Z" />
      <path class="cls-1"
        d="M100.37,57.6v35H94.7l-1-2.06a8.16,8.16,0,0,1-3,1.89,11.52,11.52,0,0,1-8.76-.24,11.35,11.35,0,0,1-3.72-2.69,12.47,12.47,0,0,1-2.44-4,13.77,13.77,0,0,1,0-9.74,12.63,12.63,0,0,1,2.44-4,11.64,11.64,0,0,1,3.72-2.69,11.32,11.32,0,0,1,4.71-1,14,14,0,0,1,4,.53,7.78,7.78,0,0,1,3.09,1.77V57.6ZM93.74,80.78a9,9,0,0,0-.48-3.14,5.13,5.13,0,0,0-1.34-2.06,5.32,5.32,0,0,0-2-1.16,8,8,0,0,0-2.43-.36,5.67,5.67,0,0,0-2.42.53,6.49,6.49,0,0,0-2,1.42,6.4,6.4,0,0,0-1.32,2.11,7,7,0,0,0-.48,2.57,6.9,6.9,0,0,0,.48,2.59,6.52,6.52,0,0,0,1.32,2.09,6.46,6.46,0,0,0,2,1.41,5.52,5.52,0,0,0,2.42.53,6.31,6.31,0,0,0,4.39-1.61A6.39,6.39,0,0,0,93.74,80.78Z" />
      <path class="cls-1"
        d="M116.45,68.16a11,11,0,0,1,4.89,1.08,12.3,12.3,0,0,1,3.79,2.83,12.46,12.46,0,0,1,2.45,4,13,13,0,0,1,.87,4.68,13.32,13.32,0,0,1-.39,3.08h-17a8.3,8.3,0,0,0,2.74,2.76,7,7,0,0,0,3.84,1.12,17.66,17.66,0,0,0,3.62-.33,20.26,20.26,0,0,0,3-.87l2.21,4.08a13.35,13.35,0,0,1-4.06,1.92,17.06,17.06,0,0,1-4.87.68A14.07,14.07,0,0,1,108,89.57a12.22,12.22,0,0,1-2.88-4A11.62,11.62,0,0,1,104,80.69a12.39,12.39,0,0,1,3.63-8.81,12.85,12.85,0,0,1,4-2.71A11.77,11.77,0,0,1,116.45,68.16Zm5.42,10.56a6.68,6.68,0,0,0-2.06-3.36,5,5,0,0,0-3.36-1.3,5.34,5.34,0,0,0-3.48,1.3,6.48,6.48,0,0,0-2.14,3.36Z" />
      <path class="cls-1"
        d="M139.77,72.14a10.23,10.23,0,0,1,1.11-1.46,7.1,7.1,0,0,1,1.49-1.25,8,8,0,0,1,2-.89,8.75,8.75,0,0,1,2.5-.33,15.09,15.09,0,0,1,3.79.57L150,74.69c-.35-.07-.71-.15-1.06-.24s-.61-.12-1-.17a6.78,6.78,0,0,0-1-.07,9.05,9.05,0,0,0-2.85.43,7.27,7.27,0,0,0-2.28,1.2,5.84,5.84,0,0,0-1.54,1.85,4.91,4.91,0,0,0-.58,2.33V92.64h-6.62V68.83h6Z" />
      <path class="cls-1"
        d="M185.66,68.83h6.82l-7.15,23.81h-8.41l-3.45-11.47-.34-3.41-.38,3.41-3.46,11.47h-8.35l-7.15-23.81h6.81l5,17.23,4.8-17.23h5.52l4.8,17.33Z" />
      <path class="cls-1"
        d="M221.08,68.83V92.64h-5.71l-.67-2.54a6.68,6.68,0,0,1-3.34,2.49,13,13,0,0,1-4.05.63,11,11,0,0,1-4.68-1,11.45,11.45,0,0,1-3.72-2.69,12.2,12.2,0,0,1-2.47-4,13.77,13.77,0,0,1,0-9.74,12.35,12.35,0,0,1,2.47-4,11.75,11.75,0,0,1,3.72-2.69,11.11,11.11,0,0,1,4.68-1,11.94,11.94,0,0,1,4.22.72,7.18,7.18,0,0,1,3.17,2.3l.67-2.35Zm-6.62,12a8.72,8.72,0,0,0-.5-3.14,5.6,5.6,0,0,0-1.35-2.06,5,5,0,0,0-2-1.16,7.91,7.91,0,0,0-2.42-.36,5.67,5.67,0,0,0-2.42.53,6.74,6.74,0,0,0-2,1.42,6.29,6.29,0,0,0-1.34,2.11,7,7,0,0,0-.48,2.57,6.9,6.9,0,0,0,.48,2.59,6.4,6.4,0,0,0,1.34,2.09,6.71,6.71,0,0,0,2,1.41,5.52,5.52,0,0,0,2.42.53,6.31,6.31,0,0,0,4.39-1.61A6.39,6.39,0,0,0,214.46,80.78Z" />
      <path class="cls-1" d="M225.55,57.55h6.62V92.64h-6.62Z" />
      <path class="cls-1"
        d="M261.16,68.83V92.64h-5.71l-.67-2.54a6.68,6.68,0,0,1-3.34,2.49,13,13,0,0,1-4.05.63,11,11,0,0,1-4.68-1A11.45,11.45,0,0,1,239,89.54a12.39,12.39,0,0,1-2.48-4,13.92,13.92,0,0,1,0-9.74,12.55,12.55,0,0,1,2.48-4,11.75,11.75,0,0,1,3.72-2.69,11.11,11.11,0,0,1,4.68-1,11.94,11.94,0,0,1,4.22.72,7.18,7.18,0,0,1,3.17,2.3l.67-2.35Zm-6.62,12a8.72,8.72,0,0,0-.5-3.14,5.6,5.6,0,0,0-1.35-2.06,5,5,0,0,0-2-1.16,7.91,7.91,0,0,0-2.42-.36,5.63,5.63,0,0,0-2.42.53,6.74,6.74,0,0,0-2,1.42,6.29,6.29,0,0,0-1.34,2.11,7,7,0,0,0-.48,2.57,6.9,6.9,0,0,0,.48,2.59,6.4,6.4,0,0,0,1.34,2.09,6.71,6.71,0,0,0,2,1.41,5.49,5.49,0,0,0,2.42.53,6.31,6.31,0,0,0,4.39-1.61A6.39,6.39,0,0,0,254.54,80.78Z" />
      <path class="cls-1"
        d="M269.2,85.68a3.67,3.67,0,1,1,0,7.34A3.47,3.47,0,0,1,266.63,92a3.77,3.77,0,0,1,0-5.22A3.47,3.47,0,0,1,269.2,85.68Z" />
    </g>
  </g>
</svg>